<?xml version="1.0" encoding="UTF-8"?>
<svg version="1.1" viewBox="0 0 1600 1600" width="1280" height="1280" xmlns="http://www.w3.org/2000/svg">
<path transform="translate(793,967)" d="m0 0c3.75-0.0291 7.5-0.0468 11.2-0.0625 1.6-0.0126 1.6-0.0126 3.22-0.0254 1.02-0.00322 2.05-0.00645 3.11-0.00977 1.41-0.00786 1.41-0.00786 2.86-0.0159 2.37 0.105 4.28 0.53 6.57 1.11 1.88 0.145 3.76 0.246 5.64 0.316 1.07 0.0419 2.14 0.0838 3.24 0.127 1.11 0.0393 2.22 0.0786 3.37 0.119 1.69 0.0648 1.69 0.0648 3.41 0.131 2.78 0.106 5.56 0.208 8.34 0.307 0.361 1.48 0.714 2.96 1.06 4.44 0.296 1.24 0.296 1.24 0.598 2.5 0.112 0.682 0.224 1.36 0.34 2.07-1.74 1.74-4 1.17-6.32 1.19-0.74-7.25e-4 -1.48-0.00145-2.24-0.0022-0.763-8.06e-5 -1.53-1.61e-4 -2.31-2.44e-4 -6.51-0.0637-12.8-0.771-19.2-1.68-5.95-0.781-11.9-1.16-17.9-1.51v-2c-1.65-0.33-3.3-0.66-5-1v-6z" fill="#000100"/>
<path transform="translate(875,752)" d="m0 0h6c-0.141 2.13-0.288 4.25-0.438 6.38-0.0812 1.18-0.162 2.37-0.246 3.59-0.316 3.04-0.316 3.04-1.32 5.04-0.181 1.52-0.321 3.04-0.438 4.56-0.374 4.04-1.01 7.85-1.96 11.8-0.962 4.2-1.75 8.44-2.55 12.7-0.944 4.85-0.944 4.85-2.05 5.96-5.53 0.235-5.53 0.235-8-1v-7h2c-0.0206-1.11-0.0412-2.23-0.0625-3.38 0.0625-3.62 0.0625-3.62 1.06-5.62 0.273-1.33 0.507-2.66 0.719-4 0.127-0.801 0.254-1.6 0.385-2.43 0.131-0.849 0.262-1.7 0.397-2.57 0.137-0.859 0.273-1.72 0.414-2.6 0.7-4.49 1.25-8.92 1.52-13.5 0.186-1.3 0.371-2.6 0.562-3.94 2.04-1.25 2.04-1.25 4-2v-2z" fill="#000100"/>
<path transform="translate(968 969)" d="m0 0c0.902 0.00444 1.8 0.00888 2.73 0.0135 1.02 1.51e-4 2.04 3.02e-4 3.09 4.58e-4 1.66 0.0155 1.66 0.0155 3.35 0.0313 1.13 0.00283 2.26 0.00566 3.42 0.00858 3.62 0.0112 7.23 0.0363 10.9 0.0617 2.45 0.01 4.9 0.0192 7.34 0.0273 6.01 0.0221 12 0.0556 18 0.0977-0.33 1.32-0.66 2.64-1 4-1.65 0.33-3.3 0.66-5 1v2c-1.65 0.0909-1.65 0.0909-3.32 0.184-1.45 0.0845-2.91 0.169-4.36 0.254-0.721 0.0393-1.44 0.0786-2.19 0.119-3.81 0.226-7.39 0.663-11.1 1.44-6.73 0.673-13.5 1.06-20.2 1.25-1.31 0.0387-1.31 0.0387-2.64 0.0781-0.696-0.108-1.39-0.217-2.11-0.328-2-3-2-3-1.75-5.56 0.937-3.04 1.66-4.32 4.93-4.68z" fill="#000100"/>
<path transform="translate(710,953)" d="m0 0c1.65-0.0269 3.29-0.0463 4.94-0.0625 0.917-0.0116 1.83-0.0232 2.78-0.0352 2.29 0.0977 2.29 0.0977 3.29 1.1 1.7 0.333 3.41 0.615 5.12 0.875 4.85 0.766 9.64 1.68 14.4 2.69 6.14 1.25 12.2 2.06 18.4 2.44v2h2v6c-2.49 1.24-4.23 1.13-7 1.12-0.887 0.00258-1.77 0.00516-2.69 0.00781-2.31-0.133-2.31-0.133-4.31-1.13-1.22-0.103-2.43-0.206-3.69-0.312-5.66-0.574-11-2.12-16.5-3.64-4.48-1.22-8.99-2.25-13.5-3.23-2.29-0.809-2.29-0.809-4.29-3.81 0.375-2.19 0.375-2.19 1-4z" fill="#000100"/>
<path transform="translate(765 537)" d="m0 0c5.13 0.54 9.09 2.9 13.6 5.38v2h3v2c0.742 0.268 1.49 0.536 2.25 0.812 2.64 1.14 4.61 2.28 6.75 4.19v2c0.557 0.0825 1.11 0.165 1.69 0.25 3.05 0.989 4.96 2.6 7.31 4.75v2c0.639 0.186 1.28 0.371 1.94 0.562 2.06 1.44 2.06 1.44 2.81 5.06 0.0825 1.11 0.165 2.23 0.25 3.38h-7v-2c-2.48-0.99-2.48-0.99-5-2v-2c-2.33-1.21-4.5-2.17-7-3v-2c-0.784-0.309-1.57-0.619-2.38-0.938-2.62-1.06-2.62-1.06-4.62-2.06v-2c-1.98-0.66-3.96-1.32-6-2v-2c-0.784-0.309-1.57-0.619-2.38-0.938-2.62-1.06-2.62-1.06-4.62-2.06v-2c-1.32-0.66-2.64-1.32-4-2 0-4.85 0-4.85 3.44-5.38z" fill="#000100"/>
<path transform="translate(855,832)" d="m0 0h3v2h2c-0.508 4.32-1.2 8.03-3 12h-2c-0.113 0.71-0.227 1.42-0.344 2.15-0.706 3.06-1.8 5.58-3.16 8.41-1.5 3.13-2.79 6.03-3.5 9.44h-2c-0.122 0.572-0.245 1.14-0.371 1.73-0.657 2.37-1.57 4.34-2.69 6.52-0.362 0.706-0.724 1.41-1.1 2.14-0.277 0.531-0.554 1.06-0.84 1.61h-2v2h-6c-0.33-1.65-0.66-3.3-1-5h2v-4h2c0.193-0.592 0.387-1.18 0.586-1.79 1.36-4.12 2.73-8.2 4.41-12.2h2c0.117-0.54 0.235-1.08 0.355-1.64 2.05-7.53 5.57-14.7 9.64-21.4h2v-2z" fill="#000100"/>
<path transform="translate(866,667)" d="m0 0h5v2h2c2.78 8.02 5.03 15.6 5.75 24.1 0.153 1.97 0.153 1.97 1.25 3.88 0.208 2.61 0.374 5.2 0.5 7.81 0.218 4.47 0.47 8.82 1.5 13.2-3.38 0.188-3.38 0.188-7 0-2.02-3.03-2.29-4.09-2.56-7.56-0.252-3.34-0.252-3.34-1.44-6.44-0.325-2.04-0.609-4.08-0.875-6.12-0.923-6.79-2.17-13.5-3.54-20.2-0.577-3.63-0.69-7.02-0.586-10.7z" fill="#000100"/>
<path transform="translate(687 508)" d="m0 0c0.805 0.102 1.61 0.204 2.44 0.309 0.896 0.109 1.79 0.219 2.71 0.332 1.41 0.194 1.41 0.194 2.86 0.391 0.919 0.123 1.84 0.245 2.79 0.372 2.78 0.382 5.56 0.783 8.34 1.19 0.956 0.139 1.91 0.277 2.9 0.42 2.33 0.337 4.65 0.676 6.98 1.02v2h6v2c1.08 0.186 1.08 0.186 2.19 0.375 2.77 0.615 5.21 1.51 7.81 2.62v2h2v4c-5.33 1.25-8.49 0.75-13.6-1.17-3.42-1.18-6.89-1.78-10.4-2.4-1.97-0.43-1.97-0.43-2.97-1.43-1.33-0.206-2.66-0.366-4-0.5-3.89-0.389-3.89-0.389-5-1.5-2.48-0.537-4.96-0.964-7.46-1.4-2.48-0.582-4.38-1.27-6.54-2.6-0.875-2-0.875-2-1-4 2-2 2-2 3.99-2.03z" fill="#000100"/>
<path transform="translate(1182,937)" d="m0 0v5h-2v2c-1.13 0.254-2.27 0.508-3.44 0.77-1.52 0.347-3.04 0.695-4.56 1.04-0.744 0.166-1.49 0.331-2.25 0.502-3.78 0.872-7.38 1.87-11 3.28-3.1 1.16-5.43 1.81-8.68 2.03-2.83 0.00963-2.83 0.00963-5.06 1.38-2.19 0.0726-4.38 0.0837-6.56 0.0625-1.8-0.0135-1.8-0.0135-3.63-0.0273-0.927-0.0116-1.85-0.0232-2.81-0.0352-0.33-1.65-0.66-3.3-1-5 4.91-3.28 10.1-4.27 15.8-5.37 4.14-0.822 8.25-1.72 12.4-2.63 1.14-0.249 1.14-0.249 2.3-0.503 3.49-0.774 6.89-1.61 10.3-2.65 3.74-0.996 6.44-0.619 10.2 0.148z" fill="#000100"/>
<path transform="translate(555,887)" d="m0 0h5v2c0.897 0.217 0.897 0.217 1.81 0.438 1.75 0.45 3.47 0.991 5.19 1.56v2c0.701 0.268 1.4 0.536 2.12 0.812 3.04 1.26 5.95 2.69 8.88 4.19v2c0.681 0.268 1.36 0.536 2.06 0.812 3.33 1.35 6.63 2.76 9.94 4.19v2h2v2c1.32 0.33 2.64 0.66 4 1 0.495 1.98 0.495 1.98 1 4h2v3c-5.65 0.346-9.03-0.566-14-3v-2h-4v-2h-3v-2c-0.701-0.268-1.4-0.536-2.12-0.812-3.04-1.26-5.95-2.69-8.88-4.19v-2h-3v-2c-1.32-0.33-2.64-0.66-4-1v-2h-3v-2h-2c-1.12-4.75-1.12-4.75 0-7z" fill="#000100"/>
<path transform="translate(569,526)" d="m0 0v5h-2v2h-2v2h-3v2c-1.46 0.838-2.91 1.67-4.38 2.5-0.812 0.464-1.62 0.928-2.46 1.41-2.16 1.09-2.16 1.09-4.16 1.09v2c-1.46 1.29-1.46 1.29-3.38 2.62-0.626 0.446-1.25 0.892-1.9 1.35-1.73 1.02-1.73 1.02-3.73 1.02v2h-3v2c-1.32 0.33-2.64 0.66-4 1v2c-1.65 0.66-3.3 1.32-5 2v2h-5c0.33-2.31 0.66-4.62 1-7h2v-2h2v-2c1.38-1.62 1.38-1.62 3-3h2v-2c2.96-2.17 5.51-3.84 9-5v-2c1.77-0.982 3.54-1.96 5.31-2.94 0.986-0.545 1.97-1.09 2.99-1.65 2.7-1.41 2.7-1.41 5.7-2.41v-2c1.27-0.532 2.54-1.05 3.81-1.56 0.708-0.29 1.42-0.58 2.14-0.879 2.04-0.559 2.04-0.559 5.04 0.441z" fill="#000100"/>
<path transform="translate(828,590)" d="m0 0c5.26 1.1 7.24 3.07 10.1 7.34 0.883 1.66 0.883 1.66 0.883 3.66h2c0.838 1.46 1.67 2.91 2.5 4.38 0.464 0.812 0.928 1.62 1.41 2.46 1.09 2.16 1.09 2.16 1.09 4.16h2v3h2c3 5.62 3 5.62 3 9h2c4.08 8.04 4.08 8.04 3.75 12.1-0.247 0.639-0.495 1.28-0.75 1.94-0.33-0.66-0.66-1.32-1-2-2.53-0.656-2.53-0.656-5-1v-2h-2v-3h-2c-3-5.75-3-5.75-3-8h-2v-3h-2c-1.29-1.64-1.29-1.64-2.62-3.81-0.446-0.708-0.892-1.42-1.35-2.14-1.02-2.04-1.02-2.04-1.02-5.04h-2v-2h-2c-0.868-1.91-1.72-3.83-2.56-5.75-0.476-1.07-0.951-2.13-1.44-3.23-0.991-3-1.16-4.15 0.00391-7.02z" fill="#000100"/>
<path transform="translate(885 972)" d="m0 0c1 0.0201 2 0.0402 3.03 0.0609 1.08 0.027 2.17 0.0541 3.28 0.0819 1.11 0.0236 2.21 0.0472 3.35 0.0715 3.55 0.0768 7.09 0.161 10.6 0.245 2.4 0.0532 4.8 0.106 7.2 0.158 5.89 0.129 11.8 0.265 17.7 0.404 0.495 2.97 0.495 2.97 1 6-3.68 2.37-7.21 2.26-11.4 2.19-1.13-0.0108-1.13-0.0108-2.29-0.0217-7.93-0.105-15.9-0.355-23.8-0.603-1.29-0.0391-2.59-0.0781-3.92-0.118-1.21-0.0421-2.42-0.0843-3.67-0.128-1.09-0.0367-2.18-0.0733-3.3-0.111-2.6-0.205-2.6-0.205-4.6-1.21v-6c2.48-1.24 4.04-1.08 6.82-1.02z" fill="#000100"/>
<path transform="translate(629,928)" d="m0 0c4.82-0.301 8.09 0.202 12.6 2.08 2.93 1.14 5.92 2.02 8.93 2.92 3.51 1.06 6.92 2.11 10.2 3.62 2.59 1.12 4.66 1.74 7.38 2.31 3.91 1.09 5.53 1.74 7.81 5.06 0.25 2.75 0.25 2.75 0 5-5.79 0.307-10.4-0.756-15.9-2.5-0.779-0.238-1.56-0.477-2.36-0.723-1.9-0.584-3.8-1.18-5.7-1.78v-2h-5v-2c-0.969-0.0825-1.94-0.165-2.94-0.25-4.73-0.65-8.8-2.67-13.1-4.75v-2h-2v-5z" fill="#000100"/>
<path transform="translate(1099,955)" d="m0 0c0.357 4.4 0.357 4.4-1 6.69-6.13 4.02-14.1 3.7-21.1 4.07-2.77-0.0744-2.77-0.0744-3.88 1.25-7.64 2.28-16.1 2.99-24 2-0.66-0.99-1.32-1.98-2-3 0.723-1.93 0.723-1.93 2-4 2-0.793 2-0.793 4.44-1.19 0.886-0.147 1.77-0.294 2.68-0.445 3.87-0.493 7.74-0.85 11.6-1.12 2.28-0.118 2.28-0.118 4.25-1.25 3.5-0.528 7.01-0.962 10.5-1.4 3.41-0.458 3.41-0.458 6.16-1.69 3.68-1.44 6.48-0.561 10.3 0.0898z" fill="#000100"/>
<path transform="translate(343,1016)" d="m0 0c9.33 2.07 17.1 7.33 24.9 12.7 2.91 1.85 5.87 3.09 9.08 4.32v2c0.743 0.227 1.49 0.454 2.25 0.688 3.31 1.58 4.74 3.27 6.75 6.31v3c-5.84 0.467-8.33-0.593-13-4-1.71-0.72-3.41-1.44-5.12-2.15-3.05-1.38-5.81-3.18-8.63-4.97-4.43-2.84-4.43-2.84-9.25-4.88v-2c-2.33-1.21-4.5-2.17-7-3-1.31-2.38-1.31-2.38-2-5 0.66-0.99 1.32-1.98 2-3z" fill="#000100"/>
<path transform="translate(418,1056)" d="m0 0c4.66 0.755 8.95 2.29 13.4 3.88 0.73 0.257 1.46 0.513 2.21 0.777 4.56 1.62 8.98 3.43 13.4 5.35 5.62 2.14 11.3 4.15 17 6v7h-7v-2c-0.887-0.0825-1.77-0.165-2.69-0.25-10.2-1.48-20-5.59-29.3-9.75-0.675-0.29-1.35-0.58-2.05-0.879-1.64-0.746-1.64-0.746-3.95-2.12-0.33-0.99-0.66-1.98-1-3h-2v-3h2v-2z" fill="#000100"/>
<path transform="translate(503,583)" d="m0 0h4c-0.516 6.1-2.49 10.9-5.06 16.4-0.377 0.827-0.754 1.65-1.14 2.51-0.924 2.02-1.86 4.04-2.79 6.06h-2v5h-2v4h-2c-0.33 2.31-0.66 4.62-1 7h-2c-0.103 0.763-0.206 1.53-0.312 2.31-0.744 2.91-1.17 4.07-3.69 5.69-2.69-0.312-2.69-0.312-5-1 0.66-2.97 1.32-5.94 2-9h2c0.0825-0.949 0.165-1.9 0.25-2.88 0.69-5.01 2.75-9.51 4.75-14.1h2c0.0825-0.66 0.165-1.32 0.25-2 1.62-6.48 5.4-12.3 8.75-18h3v-2z" fill="#000100"/>
<path transform="translate(819,908)" d="m0 0c-0.33 2.97-0.66 5.94-1 9h-2v4h-2c-0.309 0.784-0.619 1.57-0.938 2.38-1.06 2.62-1.06 2.62-2.06 4.62h-2c-0.217 0.897-0.217 0.897-0.438 1.81-0.45 1.75-0.991 3.47-1.56 5.19h-2c-0.309 0.784-0.619 1.57-0.938 2.38-1.06 2.62-1.06 2.62-2.06 4.62h-2v4h-2c-0.227 0.639-0.454 1.28-0.688 1.94-1.31 2.06-1.31 2.06-3.94 2.81-0.784 0.0825-1.57 0.165-2.38 0.25v2h-4c-1-3-1-3-0.0437-4.93 0.495-0.713 0.99-1.43 1.5-2.16 0.536-0.784 1.07-1.57 1.62-2.38 0.572-0.815 1.14-1.63 1.73-2.47 1.11-1.61 2.22-3.23 3.33-4.84 0.499-0.714 0.997-1.43 1.51-2.16 1.28-1.96 2.34-3.94 3.34-6.06h2c0.227-0.639 0.454-1.28 0.688-1.94 1.8-4.2 4.05-8.1 6.31-12.1h2v-2h2c0.33-0.99 0.66-1.98 1-3 2-1 2-1 5-1z" fill="#000100"/>
<path transform="translate(497,827)" d="m0 0h4v2h2c0.66 1.65 1.32 3.3 2 5h2c1.29 1.46 1.29 1.46 2.62 3.38 0.446 0.626 0.892 1.25 1.35 1.9 1.02 1.73 1.02 1.73 1.02 3.73h2c1.62 1.38 1.62 1.38 3 3v2h2c1.92 2.88 3.5 5.89 5 9h2c3 4.38 3 4.38 3 7h2v3c-4.96 0.605-7.46-0.474-11.3-3.43-2.88-2.59-5.55-5.38-7.75-8.57v-2h-2c-3.49-3.03-5.8-6.1-7.95-10.2-1.12-1.95-2.41-3.62-3.8-5.39-2.35-3.19-2.82-5.43-2.25-9.44 0.33-0.33 0.66-0.66 1-1z" fill="#000100"/>
<path transform="translate(505 1082)" d="m0 0c1.3 0.057 1.3 0.057 2.63 0.115 0.917 0.0483 1.83 0.0967 2.78 0.146 1.42 0.0706 1.42 0.0706 2.86 0.143 6.14 0.34 12.1 1 18.2 2.07 5.31 0.838 10.7 1.14 16 1.48 1.06 2.38 1.06 2.38 2 5-0.33 0.66-0.66 1.32-1 2-12 0.327-23.8 0.192-35.7-1.38-0.973-0.126-1.95-0.252-2.95-0.382-4.21-0.599-7.61-1.17-11.4-3.24v-2h-2v-3c2.95-0.866 5.46-1.09 8.53-0.949z" fill="#000100"/>
<path transform="translate(1445,747)" d="m0 0c1.68 0.286 3.34 0.618 5 1-0.0883 1.4-0.196 2.79-0.312 4.19-0.058 0.777-0.116 1.55-0.176 2.36-0.617 2.96-1.92 4.89-3.51 7.46-0.775 1.92-1.5 3.86-2.19 5.81-0.344 0.976-0.688 1.95-1.04 2.96-0.381 1.1-0.381 1.1-0.77 2.23h-2v4h-2c-0.122 0.572-0.245 1.14-0.371 1.73-0.657 2.37-1.57 4.34-2.69 6.52-0.362 0.706-0.724 1.41-1.1 2.14-0.277 0.531-0.554 1.06-0.84 1.61h-2v2h-2v2h-5c-0.905-5.73 1.56-9.04 4.59-13.6 1.3-2.19 1.96-3.88 2.41-6.37h2c0.17-0.806 0.17-0.806 0.344-1.63 1.1-3.96 2.87-7.64 4.5-11.4 1.04-2.68 1.7-5.14 2.16-7.97h2c0.309-0.639 0.619-1.28 0.938-1.94 1.06-2.06 1.06-2.06 2.06-3.06z" fill="#000100"/>
<path transform="translate(768,976)" d="m0 0c1.29 3.87 0.56 5.29-1 9-2 2.88-2 2.88-4 5h-2v2h-2v2h-2c-0.268 0.763-0.536 1.53-0.812 2.31-1.14 2.58-2 3.96-4.19 5.69h-2v2h-2c-0.227 0.557-0.454 1.11-0.688 1.69-1.68 2.95-3.86 4.98-6.31 7.31-0.66 0.66-1.32 1.32-2 2h-3v2c-1.32-0.33-2.64-0.66-4-1 0-3.77 0.235-4.91 2-8h2v-2h2c0.34-0.804 0.34-0.804 0.688-1.62 1.77-3.2 3.85-5.67 6.31-8.38h2v-2h2c0.268-0.583 0.536-1.17 0.812-1.77 1.2-2.26 2.53-4.04 4.19-5.98 0.516-0.614 1.03-1.23 1.56-1.86 1.44-1.39 1.44-1.39 3.44-1.39 0.247-0.598 0.495-1.2 0.75-1.81 2.08-3.64 4.04-5.19 8.25-5.19z" fill="#000100"/>
<path transform="translate(626,1074)" d="m0 0c2-0.0425 4-0.0408 6 0 1 1 1 1 1.06 3.56-0.0206 0.804-0.0412 1.61-0.0625 2.44-5.95 3.65-11.4 5.74-18.4 6.56-3.43 0.0354-3.43 0.0354-4.62 1.44-2.85 0.573-5.69 1.09-8.56 1.56-1.18 0.208-1.18 0.208-2.38 0.42-5.09 0.852-9.89 1.15-15.1 1.02-0.75-1.75-0.75-1.75-1-4 1.38-2.19 1.38-2.19 4-4 2.37-0.463 4.66-0.686 7.07-0.824 1.93 0.0307 1.93 0.0307 2.93-1.18 2.32-0.321 4.64-0.512 6.97-0.719 2.02-0.0719 2.02-0.0719 3.03-1.28 1.87-0.377 3.74-0.701 5.62-1 1.62-0.259 1.62-0.259 3.27-0.523 3.36-0.517 6.73-1.02 10.1-1.48v-2z" fill="#000100"/>
<path transform="translate(639 505)" d="m0 0c0.686-0.0122 1.37-0.0245 2.08-0.0371 3.74-0.0109 5.36 0.0979 8.55 2.22-0.33 1.65-0.66 3.3-1 5-0.94 0.0909-0.94 0.0909-1.9 0.184-0.817 0.0838-1.63 0.168-2.48 0.254-0.812 0.0812-1.62 0.162-2.46 0.246-2.21 0.207-2.21 0.207-4.16 1.32-3.35 0.232-6.7 0.394-10.1 0.518-3.84 0.187-6.62 0.561-9.94 2.48-5.97 1.64-11.8 2.44-18 2-0.66-0.66-1.32-1.32-2-2 0.137-2.02 0.137-2.02 1-4 6-3.55 14.2-4.05 21-5.12 2.06-0.332 4.13-0.668 6.19-1.01 0.901-0.143 1.8-0.286 2.73-0.434 7.78-1.62 7.78-1.62 10.5-1.62z" fill="#000100"/>
<path transform="translate(151,847)" d="m0 0c1.94 0.812 1.94 0.812 4 2 0.33 0.99 0.66 1.98 1 3 1.33 0.68 2.66 1.34 4 2 1.92 1.88 1.92 1.88 3.75 4 0.92 1.05 0.92 1.05 1.86 2.12 1.39 1.88 1.39 1.88 1.39 3.88h2c2.62 2.38 2.62 2.38 5 5v2h2c1.73 1.9 1.73 1.9 3.62 4.38 0.632 0.812 1.26 1.62 1.91 2.46 1.46 2.16 1.46 2.16 1.46 4.16h2c0.495 3.47 0.495 3.47 1 7h-6v-2h-2v-2h-2c-2.62-2.38-2.62-2.38-5-5v-2h-2c-0.66-1.65-1.32-3.3-2-5h-2c-3-3.46-3-3.46-3-6h-2c-1.73-1.86-1.73-1.86-3.62-4.31-0.632-0.801-1.26-1.6-1.91-2.43-1.46-2.26-1.46-2.26-1.46-5.26h-2c-0.381-2.33-0.713-4.66-1-7 0.33-0.33 0.66-0.66 1-1z" fill="#000100"/>
<path transform="translate(471,663)" d="m0 0c2.61-0.121 2.61-0.121 5 0-0.527 7.72-1.21 15.4-2 23.1-0.124 1.24-0.124 1.24-0.251 2.51-0.082 0.782-0.164 1.56-0.249 2.37-0.0722 0.698-0.144 1.4-0.219 2.11-0.281 1.88-0.281 1.88-1.28 4.88-0.225 2.23-0.408 4.46-0.562 6.69-0.0838 1.18-0.168 2.36-0.254 3.57-0.0606 0.904-0.121 1.81-0.184 2.74h-2v2c-2.48 0.495-2.48 0.495-5 1-0.0289-3.96-0.0468-7.92-0.0625-11.9-0.00838-1.13-0.0168-2.26-0.0254-3.42-0.00322-1.08-0.00645-2.15-0.00977-3.26-0.00524-0.995-0.0105-1.99-0.0159-3.02 0.114-2.43 0.114-2.43 1.11-4.43 0.181-1.68 0.321-3.37 0.438-5.06 1.28-15 1.28-15 5.56-19.9z" fill="#000100"/>
<path transform="translate(1264,909)" d="m0 0v3h-2v2c-1.65 0.33-3.3 0.66-5 1v2h-4v2h-5v2c-2.06 0.649-4.12 1.29-6.19 1.94-1.15 0.36-2.3 0.719-3.48 1.09-2.78 0.81-5.49 1.46-8.33 1.97v2c-5.39 2.27-10.3 2.2-16 2 0.0625-2.25 0.0625-2.25 1-5 4.07-2.89 6.89-4.62 12-4v-2c1.39-0.416 1.39-0.416 2.81-0.84 1.2-0.362 2.4-0.724 3.63-1.1 1.19-0.36 2.39-0.719 3.62-1.09 2.8-0.682 2.8-0.682 3.94-1.97 1.67-0.0406 3.33-0.0427 5 0v-2c2.06-0.702 4.12-1.39 6.19-2.06 1.15-0.383 2.3-0.766 3.48-1.16 3.31-0.771 5.12-0.738 8.33 0.223z" fill="#000100"/>
<path transform="translate(208,911)" d="m0 0c2.34 0.287 4.67 0.619 7 1v2h2v2c0.577 0.268 1.16 0.536 1.75 0.812 2.31 1.22 4.27 2.49 6.25 4.19v2c0.928 0.464 0.928 0.464 1.88 0.938l4.12 2.06v2h2v2h2v2c0.639 0.268 1.28 0.536 1.94 0.812 2.06 1.19 2.06 1.19 3.06 4.19h3v2h2c1.69 2.31 1.69 2.31 3 5-0.33 0.99-0.66 1.98-1 3-2.31-0.33-4.62-0.66-7-1v-2c-1.65-0.66-3.3-1.32-5-2v-2h-2v-2c-1.32-0.33-2.64-0.66-4-1v-2c-0.99-0.33-1.98-0.66-3-1v-2h-2v-2c-2.47-0.99-2.47-0.99-5-2v-2h-2v-2h-2c-1.62-1.38-1.62-1.38-3-3v-2h-2v-2h-2c-0.382-1.66-0.714-3.32-1-5 0.33-0.33 0.66-0.66 1-1z" fill="#000100"/>
<path transform="translate(1332,871)" d="m0 0h7c-0.472 4.25-2.85 6.3-6 9h-3v2c-5.62 3-5.62 3-9 3v2c-2.89 1.45-5.79 2.89-8.69 4.33-2.05 1.03-4.1 2.09-6.12 3.18-7.87 4.19-7.87 4.19-13.2 3.49 0.33-2.31 0.66-4.62 1-7h2v-2h5v-2c1.01-0.413 2.02-0.825 3.06-1.25 2.68-1.13 5.14-2.42 7.62-3.94 3.31-1.81 3.31-1.81 7.31-1.81v-2c5.62-3 5.62-3 9-3v-2h4v-2z" fill="#000100"/>
<path transform="translate(704 1036)" d="m0 0c1.62 0.938 1.62 0.938 2.62 3.94-1.97 4.51-4.77 6.62-9 9h-3v2c-4.38 3-4.38 3-7 3v2h-4v2c-1.25 0.651-2.5 1.3-3.75 1.94-0.696 0.36-1.39 0.719-2.11 1.09-2.04 0.928-3.95 1.5-6.14 1.97v2c-2.31 0.66-4.62 1.32-7 2-0.66-0.66-1.32-1.32-2-2v-4c2.5-2.42 3.46-3 7-3v-2h2v-2c2.97-0.99 5.94-1.98 9-3v-2h4v-2h3v-2c1.32-0.33 2.64-0.66 4-1v-2h3v-2c6.33-4.02 6.33-4.02 9.38-3.94z" fill="#000100"/>
<path transform="translate(272,967)" d="m0 0c4.45 0.99 4.45 0.99 9 2v2h2l1 2c1.98 1.05 3.97 2.05 6 3v2c0.743 0.268 1.49 0.536 2.25 0.812 2.64 1.14 4.61 2.28 6.75 4.19v2h3v2c0.784 0.309 1.57 0.619 2.38 0.938 2.62 1.06 2.62 1.06 4.62 2.06v2h2v3h2c0.495 2.97 0.495 2.97 1 6-3.72 0.201-4.77 0.152-8-2v-2c-0.784-0.309-1.57-0.619-2.38-0.938-2.62-1.06-2.62-1.06-4.62-2.06v-2h-2v-2h-4c-1.38-1.29-2.71-2.63-4-4-0.804-0.474-1.61-0.949-2.44-1.44-2.99-1.82-5.12-4.06-7.56-6.56-0.99-0.66-1.98-1.32-3-2v-2h-2v-2h-2v-5z" fill="#000100"/>
<path transform="translate(1406,818)" d="m0 0v5h-2c-0.268 0.639-0.536 1.28-0.812 1.94-1.19 2.06-1.19 2.06-4.19 3.06v2h-2v2h-2c-0.33 0.99-0.66 1.98-1 3h-2v2h-2v2c-1.65 0.66-3.3 1.32-5 2v2c-1.61 1.62-1.61 1.62-3.75 3.44-0.696 0.597-1.39 1.19-2.11 1.81-0.706 0.579-1.41 1.16-2.14 1.75-0.681 0.565-1.36 1.13-2.06 1.71-2.68 1.78-4.79 1.5-7.94 1.29-0.33-1.65-0.66-3.3-1-5 0.494-0.338 0.987-0.675 1.5-1.02 0.641-0.446 1.28-0.892 1.94-1.35 0.638-0.441 1.28-0.882 1.93-1.34 1.77-1.21 1.77-1.21 2.63-3.29h2v-2c2.96-2.17 5.51-3.84 9-5v-2h2v-2c1.38-1.62 1.38-1.62 3-3h2v-2h2v-2c3.56-3.39 6.93-5.77 12-5z" fill="#000100"/>
<path transform="translate(466,748)" d="m0 0c2.48 0.99 2.48 0.99 5 2v2h2c0.105 0.564 0.211 1.13 0.32 1.71 0.49 2.6 0.992 5.19 1.49 7.79 0.166 0.887 0.331 1.77 0.502 2.69 1.08 5.55 2.62 10.5 4.69 15.8 0.361 2.33 0.697 4.66 1 7 0.351 1.03 0.701 2.06 1.06 3.12 0.922 2.83 1.11 4.93 0.938 7.88-3.97-1.44-5.75-2.61-8.06-6.19-2.96-6.67-4.94-13.8-6.94-20.8-0.194-0.66-0.388-1.32-0.588-2-1.32-4.8-1.63-9.02-1.54-14 0.00902-0.679 0.018-1.36 0.0273-2.06 0.0232-1.65 0.0591-3.29 0.0977-4.94z" fill="#000100"/>
</svg>
